<svg width="22" height="22" viewBox="0 0 22 22" fill="none" xmlns="http://www.w3.org/2000/svg">
<path d="M11.0004 2.81834e-09C8.38832 -5.98406e-05 5.86148 0.952902 3.87205 2.68835C1.88261 4.4238 0.560401 6.82848 0.142037 9.47206C-0.276328 12.1156 0.236454 14.8256 1.58862 17.117C2.94078 19.4084 5.04409 21.1317 7.52214 21.9784C8.07214 22.0777 8.27784 21.7393 8.27784 21.4427C8.27784 21.1754 8.26464 20.2867 8.26464 19.3426C5.50032 19.8637 4.78531 18.6513 4.56531 18.0174C4.32111 17.4003 3.93414 16.8534 3.4378 16.4238C3.0528 16.2129 2.50279 15.6907 3.4235 15.6771C3.7754 15.7161 4.11294 15.8415 4.40746 16.0428C4.70199 16.244 4.94481 16.5152 5.11531 16.8332C5.26572 17.1103 5.46797 17.3542 5.71049 17.551C5.95301 17.7478 6.23102 17.8936 6.52859 17.98C6.82616 18.0665 7.13744 18.0918 7.44459 18.0547C7.75175 18.0176 8.04874 17.9187 8.31854 17.7637C8.36579 17.1899 8.61528 16.6534 9.02035 16.2546C6.57283 15.9726 4.0153 15.0004 4.0153 10.6864C4.00061 9.56544 4.40392 8.48104 5.14281 7.65472C4.80722 6.6804 4.84656 5.61154 5.25282 4.66592C5.25282 4.66592 6.17352 4.37042 8.27784 5.82197C10.0778 5.31454 11.9779 5.31454 13.7779 5.82197C15.8811 4.35576 16.8029 4.66592 16.8029 4.66592C17.2092 5.61154 17.2485 6.6804 16.9129 7.65472C17.6547 8.47919 18.0585 9.56483 18.0404 10.6864C18.0404 15.014 15.4686 15.9726 13.0222 16.2546C13.2844 16.5276 13.4863 16.8552 13.6142 17.2152C13.7421 17.5752 13.7931 17.9592 13.7636 18.3411C13.7636 19.8502 13.7504 21.0626 13.7504 21.4427C13.7504 21.7393 13.9561 22.0912 14.5061 21.9784C16.9796 21.1246 19.0766 19.3972 20.4229 17.1047C21.7691 14.8122 22.2769 12.1038 21.8557 9.46288C21.4344 6.82199 20.1115 4.42053 18.1232 2.6872C16.1348 0.953857 13.6103 0.001455 11.0004 2.81834e-09Z" fill="#BABABA"/>
</svg>
