<svg width="30" height="30" viewBox="0 0 30 30" fill="none" xmlns="http://www.w3.org/2000/svg">
<g clip-path="url(#clip0_1635_75)">
<path d="M8.25 8.17969L6.30469 6.23438V20.2266L6.32813 20.8828C6.32813 21.1875 6.375 21.5391 6.49219 21.8906L21.8672 27.3047L25.6875 25.6172L8.25 8.17969Z" fill="#959595"/>
<path d="M25.6875 25.6172L21.8672 27.3047L6.53906 21.8906C6.84375 23.0156 7.47656 24.2578 8.17969 24.9844L13.1719 29.9531L24.3281 29.9766L25.6875 25.6172Z" fill="#D9D9D9" fill-opacity="0.2"/>
<path d="M0.398456 15.2578C-0.0937311 15.7734 0.164081 16.875 0.937519 17.6953L4.38283 21.1641L6.53908 21.9375C6.46877 21.5859 6.37502 21.2344 6.37502 20.9297L6.35158 20.2734L6.30471 6.25781M25.6875 25.6172L27.375 21.7734L21.9844 6.39844C21.6328 6.32812 21.2813 6.25781 20.9766 6.23438L20.2969 6.21094L6.32814 6.23438" fill="#D9D9D9" fill-opacity="0.2"/>
<path d="M25.6875 25.6172L29.8359 24.2578V12.8438L25.0547 8.03906C24.3516 7.33594 23.1094 6.67969 21.9609 6.39844L27.375 21.7734" fill="#959595"/>
<path d="M21.2109 4.26562L17.7422 0.820311C16.9453 0.0234361 15.8672 -0.210939 15.3047 0.281249L6.30469 6.23437H20.25L20.9297 6.25781C21.2344 6.25781 21.5859 6.30469 21.9375 6.42187L21.2109 4.26562Z" fill="#959595"/>
</g>
<defs>
<clipPath id="clip0_1635_75">
<rect width="30" height="30" fill="white"/>
</clipPath>
</defs>
</svg>
