<svg width="30" height="30" viewBox="0 0 30 30" fill="none" xmlns="http://www.w3.org/2000/svg">
<path d="M8.44625 1.87625L5 23.125L11.8412 6.02L9.61875 1.69125C9.55858 1.57434 9.46307 1.47938 9.3458 1.41989C9.22854 1.3604 9.09551 1.33941 8.96562 1.3599C8.83574 1.3804 8.71563 1.44133 8.62238 1.53403C8.52914 1.62674 8.4675 1.74649 8.44625 1.87625ZM14.455 5.3975L5 23.125L17.3 8.6875L15.5512 5.40875C15.4985 5.30983 15.4202 5.22691 15.3244 5.16868C15.2286 5.11044 15.1189 5.07904 15.0068 5.07776C14.8947 5.07649 14.7844 5.10538 14.6873 5.16141C14.5902 5.21744 14.51 5.29981 14.455 5.3975ZM13.675 28.5463L5 23.125L21.6375 7.08125C21.7212 7.00471 21.8242 6.9524 21.9354 6.92993C22.0466 6.90746 22.1618 6.91568 22.2687 6.9537C22.3756 6.99173 22.4701 7.05812 22.5421 7.14577C22.6141 7.23343 22.6609 7.33903 22.6775 7.45125L25 23.125L16.325 28.5463C15.9277 28.7946 15.4686 28.9263 15 28.9263C14.5314 28.9263 14.0723 28.7946 13.675 28.5463Z" fill="#959595"/>
</svg>
