<svg width="30" height="30" viewBox="0 0 30 30" fill="none" xmlns="http://www.w3.org/2000/svg">
<path d="M13.3037 1.16753C12.9262 1.25128 12.1437 1.53003 11.5712 1.79628C8.8625 3.10878 7.215 6.19628 7.63375 9.17003C7.83752 10.7002 8.52771 12.1244 9.6025 13.2325C11.0125 14.7 12.6887 15.3975 14.77 15.4125C16.8225 15.4125 18.5125 14.7 19.9362 13.2338C24.2375 8.75003 21.3187 1.39128 15.1187 1.08378C14.5037 1.05628 13.6937 1.08378 13.3037 1.16753ZM17.2125 3.96253C18.3437 4.38128 19.67 5.68003 19.935 6.64378C20.2012 7.63503 20.06 8.91878 19.5725 9.82753C18.4975 11.7963 16.0525 13.235 14.5862 12.76C13.9162 12.5363 13.0237 11.5175 12.5337 10.4413C11.475 8.08003 11.125 6.04128 11.6137 5.09128C12.3537 3.65378 15.0075 3.12253 17.2137 3.96128L17.2125 3.96253ZM5.13375 14.825C1.58625 15.97 -0.507503 19.3225 0.106247 22.925C0.706247 26.5 4.0725 29.1675 7.6475 28.8875C10.1887 28.7063 12.3537 27.3375 13.4987 25.1875C14.1275 23.9875 14.35 23.0925 14.35 21.6688C14.35 19.1125 13.1362 16.92 10.9287 15.5513C9.37875 14.5738 6.86625 14.2663 5.13375 14.8263V14.825ZM8.17875 17.0738C11.6 17.6325 13.4562 20.495 12.1162 23.1763C11.5712 24.2513 10.4262 25.3413 9.25375 25.9C8.4575 26.2625 8.20625 26.3188 7.46625 26.2625C6.18125 26.1788 5.60875 25.6625 4.91 23.9163C4.0725 21.8638 3.7225 19.4063 4.1425 18.61C4.65875 17.6463 5.53875 17.1575 7.15875 16.9475C7.2425 16.9475 7.68875 17.0038 8.17875 17.0738ZM20.4812 14.895C16.3062 16.3613 14.435 20.9975 16.39 24.9913C16.9337 26.1088 18.2187 27.4213 19.365 28.0225C22.31 29.5725 25.495 29.1113 27.84 26.7788C31.6525 23.0088 30.215 16.6825 25.1175 14.895C23.8187 14.435 21.78 14.435 20.4812 14.895ZM24.755 17.3675C26.235 17.8425 27.715 19.2238 28.05 20.4675C28.2737 21.2913 28.1475 22.4788 27.7712 23.26C27.0862 24.6713 25.3837 25.9413 23.7075 26.2763C21.445 26.7238 20.2862 25.1738 19.77 21.0388C19.4612 18.54 20.145 17.395 22.1575 17.0888C22.995 16.9625 23.72 17.0313 24.755 17.3675Z" fill="#959595"/>
</svg>
