<svg width="30" height="30" viewBox="0 0 30 30" fill="none" xmlns="http://www.w3.org/2000/svg">
<g clip-path="url(#clip0_1635_63)">
<path fill-rule="evenodd" clip-rule="evenodd" d="M16.1937 1.11626C16.037 0.959404 15.8509 0.834976 15.6461 0.750081C15.4412 0.665187 15.2217 0.62149 14.9999 0.62149C14.7782 0.62149 14.5587 0.665187 14.3538 0.750081C14.149 0.834976 13.9629 0.959404 13.8062 1.11626L10.2999 4.62501C10.5737 4.88501 10.8374 5.13751 10.9749 5.27501L13.7874 8.08751C14.3123 7.83685 14.9019 7.75507 15.4751 7.85342C16.0484 7.95177 16.577 8.22542 16.9883 8.63668C17.3995 9.04794 17.6732 9.57658 17.7715 10.1498C17.8699 10.7231 17.7881 11.3127 17.5374 11.8375L19.0999 13.4C19.6986 13.1139 20.3791 13.0487 21.0212 13.2159C21.6634 13.3831 22.2257 13.7719 22.6088 14.3136C22.9919 14.8553 23.1712 15.515 23.115 16.1762C23.0587 16.8373 22.7705 17.4572 22.3013 17.9264C21.8322 18.3956 21.2122 18.6838 20.5511 18.74C19.89 18.7963 19.2303 18.617 18.6885 18.2339C18.1468 17.8507 17.758 17.2884 17.5908 16.6463C17.4237 16.0042 17.4889 15.3237 17.7749 14.725L16.2124 13.165C16.1231 13.2079 16.0313 13.2455 15.9374 13.2775V17.9738C16.5633 18.1949 17.0908 18.6302 17.4268 19.2027C17.7627 19.7752 17.8854 20.4481 17.7732 21.1023C17.661 21.7566 17.3211 22.3501 16.8136 22.7779C16.3062 23.2058 15.6637 23.4405 14.9999 23.4405C14.3362 23.4405 13.6937 23.2058 13.1862 22.7779C12.6788 22.3501 12.3389 21.7566 12.2267 21.1023C12.1145 20.4481 12.2372 19.7752 12.5731 19.2027C12.9091 18.6302 13.4366 18.1949 14.0624 17.9738V13.2788C13.6903 13.1473 13.35 12.939 13.0637 12.6674C12.7774 12.3958 12.5514 12.067 12.4005 11.7023C12.2496 11.3377 12.1771 10.9453 12.1878 10.5508C12.1985 10.1563 12.292 9.76847 12.4624 9.41251L9.64995 6.60001C9.55745 6.50876 9.28745 6.22626 8.99995 5.92376L1.11745 13.8063C0.960595 13.963 0.836166 14.1491 0.751271 14.3539C0.666377 14.5587 0.622681 14.7783 0.622681 15C0.622681 15.2217 0.666377 15.4413 0.751271 15.6461C0.836166 15.8509 0.960595 16.037 1.11745 16.1938L13.8062 28.8813C13.9629 29.0381 14.149 29.1625 14.3538 29.2474C14.5587 29.3323 14.7782 29.376 14.9999 29.376C15.2217 29.376 15.4412 29.3323 15.6461 29.2474C15.8509 29.1625 16.037 29.0381 16.1937 28.8813L28.8824 16.1938C29.0393 16.037 29.1637 15.8509 29.2486 15.6461C29.3335 15.4413 29.3772 15.2217 29.3772 15C29.3772 14.7783 29.3335 14.5587 29.2486 14.3539C29.1637 14.1491 29.0393 13.963 28.8824 13.8063L16.1937 1.11626ZM14.9999 19.6875C14.7513 19.6875 14.5128 19.7863 14.337 19.9621C14.1612 20.1379 14.0624 20.3764 14.0624 20.625C14.0624 20.8736 14.1612 21.1121 14.337 21.2879C14.5128 21.4637 14.7513 21.5625 14.9999 21.5625C15.2486 21.5625 15.487 21.4637 15.6629 21.2879C15.8387 21.1121 15.9374 20.8736 15.9374 20.625C15.9374 20.3764 15.8387 20.1379 15.6629 19.9621C15.487 19.7863 15.2486 19.6875 14.9999 19.6875ZM15.9374 10.625C15.9374 10.8736 15.8387 11.1121 15.6629 11.2879C15.487 11.4637 15.2486 11.5625 14.9999 11.5625C14.7513 11.5625 14.5128 11.4637 14.337 11.2879C14.1612 11.1121 14.0624 10.8736 14.0624 10.625C14.0624 10.3764 14.1612 10.1379 14.337 9.96209C14.5128 9.78628 14.7513 9.68751 14.9999 9.68751C15.2486 9.68751 15.487 9.78628 15.6629 9.96209C15.8387 10.1379 15.9374 10.3764 15.9374 10.625ZM19.3749 15.9375C19.3749 15.6889 19.4737 15.4504 19.6495 15.2746C19.8253 15.0988 20.0638 15 20.3124 15C20.5611 15 20.7995 15.0988 20.9754 15.2746C21.1512 15.4504 21.2499 15.6889 21.2499 15.9375C21.2499 16.1861 21.1512 16.4246 20.9754 16.6004C20.7995 16.7762 20.5611 16.875 20.3124 16.875C20.0638 16.875 19.8253 16.7762 19.6495 16.6004C19.4737 16.4246 19.3749 16.1861 19.3749 15.9375Z" fill="#959595"/>
</g>
<defs>
<clipPath id="clip0_1635_63">
<rect width="30" height="30" fill="white"/>
</clipPath>
</defs>
</svg>
