<svg width="30" height="30" viewBox="0 0 30 30" fill="none" xmlns="http://www.w3.org/2000/svg">
<path fill-rule="evenodd" clip-rule="evenodd" d="M4 4.625C4 4.45924 4.06585 4.30027 4.18306 4.18306C4.30027 4.06585 4.45924 4 4.625 4H10.25C10.4158 4 10.5747 4.06585 10.6919 4.18306C10.8092 4.30027 10.875 4.45924 10.875 4.625V10.25C10.875 10.4158 10.8092 10.5747 10.6919 10.6919C10.5747 10.8092 10.4158 10.875 10.25 10.875H4.625C4.45924 10.875 4.30027 10.8092 4.18306 10.6919C4.06585 10.5747 4 10.4158 4 10.25V4.625ZM19.625 20.25C19.625 20.0842 19.6908 19.9253 19.8081 19.8081C19.9253 19.6908 20.0842 19.625 20.25 19.625H25.875C26.0408 19.625 26.1997 19.6908 26.3169 19.8081C26.4342 19.9253 26.5 20.0842 26.5 20.25V25.875C26.5 26.0408 26.4342 26.1997 26.3169 26.3169C26.1997 26.4342 26.0408 26.5 25.875 26.5H20.25C20.0842 26.5 19.9253 26.4342 19.8081 26.3169C19.6908 26.1997 19.625 26.0408 19.625 25.875V20.25ZM19.2444 18.3606L17.2544 16.3706L16.3706 17.2544L18.3606 19.2444L19.2444 18.3606ZM13.7981 12.9144L16.2837 15.4L15.4 16.2844L12.9144 13.7981V16.4344H11.6644V11.6644H16.4344V12.9144H13.7981Z" fill="#959595"/>
</svg>
