<svg width="30" height="30" viewBox="0 0 30 30" fill="none" xmlns="http://www.w3.org/2000/svg">
<g clip-path="url(#clip0_1635_53)">
<mask id="mask0_1635_53" style="mask-type:luminance" maskUnits="userSpaceOnUse" x="0" y="0" width="30" height="30">
<path d="M0 0H30V30H0V0Z" fill="white"/>
</mask>
<g mask="url(#mask0_1635_53)">
<path d="M14.8925 0C7.275 0 7.75 3.32 7.75 3.32L7.75875 6.76H15.0262V7.7925H4.875C4.875 7.7925 0 7.23625 0 14.9612C0 22.6862 4.25375 22.4113 4.25375 22.4113H6.79125V18.8275C6.79125 18.8275 6.655 14.5525 10.9787 14.5525H18.1862C18.1862 14.5525 22.2362 14.6175 22.2362 10.6175V4.0025C22.2362 4.0025 22.8512 0 14.8925 0ZM10.885 2.3125C11.6075 2.3125 12.1925 2.9 12.1925 3.6275C12.1925 4.35375 11.6075 4.94125 10.885 4.94125C10.1625 4.94125 9.5775 4.35375 9.5775 3.6275C9.5775 2.9 10.1613 2.3125 10.885 2.3125Z" fill="#959595"/>
<path d="M15.1088 30C22.7238 30 22.2488 26.68 22.2488 26.68L22.24 23.24H14.9725V22.2075H25.1263C25.1263 22.2075 30.0013 22.7637 30.0013 15.0387C30.0013 7.31375 25.7463 7.58875 25.7463 7.58875H23.2088V11.1725C23.2088 11.1725 23.345 15.4475 19.0213 15.4475H11.815C11.815 15.4475 7.76505 15.3825 7.76505 19.3825V25.9975C7.76505 25.9975 7.15005 30 15.1088 30ZM19.1163 27.6875C18.3925 27.6875 17.8088 27.1 17.8088 26.3725C17.8088 25.6462 18.3925 25.0587 19.1163 25.0587C19.8388 25.0587 20.4238 25.6462 20.4238 26.3725C20.4238 27.1 19.8388 27.6875 19.1163 27.6875Z" fill="#959595"/>
</g>
</g>
<defs>
<clipPath id="clip0_1635_53">
<rect width="30" height="30" fill="white"/>
</clipPath>
</defs>
</svg>
